{
    "asset": {
        "version": "2.0",
        "generator": "THREE.GLTFExporter"
    },
    "scenes": [
        {
            "nodes": [
                0
            ]
        }
    ],
    "scene": 0,
    "nodes": [
        {
            "children": [
                9
            ],
            "matrix": [
                0.009999999776482582,
                0,
                0,
                0,
                0,
                0.009999999776482582,
                0,
                0,
                0,
                0,
                0.009999999776482582,
                0,
                0,
                0,
                0,
                1
            ],
            "rotation": [
                0,
                0,
                0,
                1
            ],
            "scale": [
                0.009999999776482582,
                0.009999999776482582,
                0.009999999776482582
            ],
            "translation": [
                0,
                0,
                0
            ]
        },
        {
            "children": [
                10
            ],
            "matrix": [
                -1.2853726298072988e-16,
                -0.0813816636800766,
                -0.614203155040741,
                0,
                0.16822770237922668,
                0.5911287665367126,
                -0.0783243179321289,
                0,
                0.5962951183319092,
                -0.16677016019821167,
                0.02209697850048542,
                0,
                8.015311241149902,
                137.5583038330078,
                -22.038555145263672,
                1
            ],
            "rotation": [
                0.050600651651620865,
                0.6925367116928101,
                -0.14280371367931366,
                0.7052939534187317
            ],
            "scale": [
                0.6195712089538574,
                0.6195712089538574,
                0.6195711493492126
            ],
            "translation": [
                8.015311241149902,
                137.5583038330078,
                -22.038555145263672
            ],
            "name": "Cube 2"
        },
        {
            "children": [
                11
            ],
            "matrix": [
                0.6195712089538574,
                0,
                0,
                0,
                0,
                0.6195712089538574,
                0,
                0,
                0,
                0,
                0.6195712089538574,
                0,
                -0.9894039630889893,
                -118.27149200439453,
                -11.616043090820312,
                1
            ],
            "rotation": [
                0,
                0,
                0,
                1
            ],
            "scale": [
                0.6195712089538574,
                0.6195712089538574,
                0.6195712089538574
            ],
            "translation": [
                -0.9894039630889893,
                -118.27149200439453,
                -11.616043090820312
            ],
            "name": "Cube"
        },
        {
            "children": [
                12
            ],
            "matrix": [
                0.6195712089538574,
                0,
                0,
                0,
                0,
                0.6195712089538574,
                0,
                0,
                0,
                0,
                0.6195712089538574,
                0,
                -0.3319550156593323,
                -116.85953521728516,
                -11.4293851852417,
                1
            ],
            "rotation": [
                0,
                0,
                0,
                1
            ],
            "scale": [
                0.6195712089538574,
                0.6195712089538574,
                0.6195712089538574
            ],
            "translation": [
                -0.3319550156593323,
                -116.85953521728516,
                -11.4293851852417
            ],
            "name": "Cube"
        },
        {
            "children": [
                1,
                2,
                3
            ],
            "matrix": [
                0.6739653944969177,
                0,
                0,
                0,
                0,
                0.6701515913009644,
                0,
                0,
                0,
                0,
                0.668630063533783,
                0,
                24.424623489379883,
                209.1861572265625,
                88.59417724609375,
                1
            ],
            "rotation": [
                0,
                0,
                0,
                1
            ],
            "scale": [
                0.6739653944969177,
                0.6701515913009644,
                0.668630063533783
            ],
            "translation": [
                24.424623489379883,
                209.1861572265625,
                88.59417724609375
            ],
            "name": "Nektarin"
        },
        {
            "children": [],
            "matrix": [
                0.8854291439056396,
                0.28674328327178955,
                -0.3657779395580292,
                0,
                0.30809351801872253,
                -0.951356053352356,
                0,
                0,
                -0.34798505902290344,
                -0.11269380897283554,
                -0.9307021498680115,
                0,
                0,
                0,
                0,
                1
            ],
            "rotation": [
                0.9705008268356323,
                0.15322934091091156,
                -0.18386460840702057,
                0.029029807075858116
            ],
            "scale": [
                1,
                1,
                1
            ],
            "translation": [
                0,
                0,
                0
            ],
            "name": "Directional Light 2",
            "extensions": {
                "KHR_lights_punctual": {
                    "light": 0
                }
            }
        },
        {
            "children": [],
            "matrix": [
                0.7730686664581299,
                -0.46532338857650757,
                -0.43109044432640076,
                0,
                0.5157030820846558,
                0.8567673563957214,
                0,
                0,
                0.36934420466423035,
                -0.22231467068195343,
                0.9023087024688721,
                0,
                0,
                0,
                0,
                1
            ],
            "rotation": [
                0.059145115315914154,
                0.21294951438903809,
                -0.2609945833683014,
                0.9397000670433044
            ],
            "scale": [
                1,
                1,
                1
            ],
            "translation": [
                0,
                0,
                0
            ],
            "name": "Directional Light",
            "extensions": {
                "KHR_lights_punctual": {
                    "light": 1
                }
            }
        },
        {
            "camera": 0,
            "children": [],
            "matrix": [
                0.07421774417161942,
                1.4817170601588714e-8,
                -0.9972420334815979,
                0,
                0.10573221743106842,
                0.9943634867668152,
                0.007868923246860504,
                0,
                0.9916211366653442,
                -0.10602463036775589,
                0.07379940897226334,
                0,
                990.0457153320312,
                82.16152954101562,
                92.39358520507812,
                1
            ],
            "rotation": [
                0.03890638053417206,
                0.6794016361236572,
                -0.036118440330028534,
                0.7318436503410339
            ],
            "scale": [
                1,
                1,
                1
            ],
            "translation": [
                990.0457153320312,
                82.16152954101562,
                92.39358520507812
            ]
        },
        {
            "children": [],
            "matrix": [
                1,
                0,
                0,
                0,
                0,
                1,
                0,
                0,
                0,
                0,
                1,
                0,
                0,
                1,
                0,
                1
            ],
            "rotation": [
                0,
                0,
                0,
                1
            ],
            "scale": [
                1,
                1,
                1
            ],
            "translation": [
                0,
                1,
                0
            ],
            "name": "Default Ambient Light"
        },
        {
            "children": [
                4,
                5,
                6,
                7,
                8
            ],
            "rotation": [
                0,
                0,
                0,
                1
            ],
            "scale": [
                1,
                1,
                1
            ],
            "translation": [
                0,
                0,
                0
            ],
            "name": "Scene 1"
        },
        {
            "children": [],
            "rotation": [
                0,
                0,
                0,
                1
            ],
            "scale": [
                1,
                1,
                1
            ],
            "translation": [
                0,
                0,
                0
            ],
            "mesh": 0
        },
        {
            "children": [],
            "rotation": [
                0,
                0,
                0,
                1
            ],
            "scale": [
                1,
                1,
                1
            ],
            "translation": [
                0,
                0,
                0
            ],
            "mesh": 1
        },
        {
            "children": [],
            "rotation": [
                0,
                0,
                0,
                1
            ],
            "scale": [
                1,
                1,
                1
            ],
            "translation": [
                0,
                0,
                0
            ],
            "mesh": 2
        }
    ],
    "bufferViews": [
        {
            "buffer": 1,
            "byteOffset": 344064,
            "byteLength": 86016,
            "target": 34963,
            "extensions": {
                "EXT_meshopt_compression": {
                    "buffer": 0,
                    "byteOffset": 0,
                    "byteLength": 7185,
                    "byteStride": 4,
                    "mode": "TRIANGLES",
                    "count": 21504
                }
            }
        },
        {
            "buffer": 1,
            "byteOffset": 0,
            "byteLength": 172032,
            "target": 34962,
            "extensions": {
                "EXT_meshopt_compression": {
                    "buffer": 0,
                    "byteOffset": 7188,
                    "byteLength": 129341,
                    "byteStride": 12,
                    "mode": "ATTRIBUTES",
                    "filter": "NONE",
                    "count": 14336
                }
            }
        },
        {
            "buffer": 1,
            "byteOffset": 172032,
            "byteLength": 172032,
            "target": 34962,
            "extensions": {
                "EXT_meshopt_compression": {
                    "buffer": 0,
                    "byteOffset": 136532,
                    "byteLength": 133709,
                    "byteStride": 12,
                    "mode": "ATTRIBUTES",
                    "filter": "NONE",
                    "count": 14336
                }
            }
        },
        {
            "buffer": 1,
            "byteOffset": 1069056,
            "byteLength": 159744,
            "target": 34963,
            "extensions": {
                "EXT_meshopt_compression": {
                    "buffer": 0,
                    "byteOffset": 270244,
                    "byteLength": 13329,
                    "byteStride": 4,
                    "mode": "TRIANGLES",
                    "count": 39936
                }
            }
        },
        {
            "buffer": 1,
            "byteOffset": 430080,
            "byteLength": 319488,
            "target": 34962,
            "extensions": {
                "EXT_meshopt_compression": {
                    "buffer": 0,
                    "byteOffset": 283576,
                    "byteLength": 242102,
                    "byteStride": 12,
                    "mode": "ATTRIBUTES",
                    "filter": "NONE",
                    "count": 26624
                }
            }
        },
        {
            "buffer": 1,
            "byteOffset": 749568,
            "byteLength": 319488,
            "target": 34962,
            "extensions": {
                "EXT_meshopt_compression": {
                    "buffer": 0,
                    "byteOffset": 525680,
                    "byteLength": 247325,
                    "byteStride": 12,
                    "mode": "ATTRIBUTES",
                    "filter": "NONE",
                    "count": 26624
                }
            }
        },
        {
            "buffer": 1,
            "byteOffset": 1867776,
            "byteLength": 159744,
            "target": 34963,
            "extensions": {
                "EXT_meshopt_compression": {
                    "buffer": 0,
                    "byteOffset": 773008,
                    "byteLength": 13329,
                    "byteStride": 4,
                    "mode": "TRIANGLES",
                    "count": 39936
                }
            }
        },
        {
            "buffer": 1,
            "byteOffset": 1228800,
            "byteLength": 319488,
            "target": 34962,
            "extensions": {
                "EXT_meshopt_compression": {
                    "buffer": 0,
                    "byteOffset": 786340,
                    "byteLength": 242121,
                    "byteStride": 12,
                    "mode": "ATTRIBUTES",
                    "filter": "NONE",
                    "count": 26624
                }
            }
        },
        {
            "buffer": 1,
            "byteOffset": 1548288,
            "byteLength": 319488,
            "target": 34962,
            "extensions": {
                "EXT_meshopt_compression": {
                    "buffer": 0,
                    "byteOffset": 1028464,
                    "byteLength": 247335,
                    "byteStride": 12,
                    "mode": "ATTRIBUTES",
                    "filter": "NONE",
                    "count": 26624
                }
            }
        }
    ],
    "buffers": [
        {
            "uri": "data:application/octet-stream;base64,",
            "byteLength": 1275800
        },
        {
            "byteLength": 2027520,
            "extensions": {
                "EXT_meshopt_compression": {
                    "fallback": false
                }
            }
        }
    ],
    "accessors": [
        {
            "bufferView": 1,
            "componentType": 5126,
            "count": 14336,
            "max": [
                108.54937744140625,
                206.12423706054688,
                13.692171096801758
            ],
            "min": [
                -60.67144775390625,
                -125.17823028564453,
                -112.78289794921875
            ],
            "type": "VEC3"
        },
        {
            "bufferView": 2,
            "componentType": 5126,
            "count": 14336,
            "max": [
                0.9999911189079285,
                0.9993177056312561,
                0.9999716281890869
            ],
            "min": [
                -0.9998770952224731,
                -0.9996411204338074,
                -0.9999801516532898
            ],
            "type": "VEC3"
        },
        {
            "bufferView": 0,
            "componentType": 5125,
            "count": 21504,
            "max": [
                14335
            ],
            "min": [
                0
            ],
            "type": "SCALAR"
        },
        {
            "bufferView": 4,
            "componentType": 5126,
            "count": 26624,
            "max": [
                462.6510925292969,
                536.134521484375,
                483.87432861328125
            ],
            "min": [
                -461.962158203125,
                -287.09661865234375,
                -469.1328125
            ],
            "type": "VEC3"
        },
        {
            "bufferView": 5,
            "componentType": 5126,
            "count": 26624,
            "max": [
                0.9999977946281433,
                1,
                0.9999240040779114
            ],
            "min": [
                -0.999977171421051,
                -1,
                -0.9999309778213501
            ],
            "type": "VEC3"
        },
        {
            "bufferView": 3,
            "componentType": 5125,
            "count": 39936,
            "max": [
                26623
            ],
            "min": [
                0
            ],
            "type": "SCALAR"
        },
        {
            "bufferView": 7,
            "componentType": 5126,
            "count": 26624,
            "max": [
                454.643798828125,
                528.3841552734375,
                476.47991943359375
            ],
            "min": [
                -453.9667663574219,
                -282.9462890625,
                -461.96368408203125
            ],
            "type": "VEC3"
        },
        {
            "bufferView": 8,
            "componentType": 5126,
            "count": 26624,
            "max": [
                0.9999978542327881,
                1,
                0.9999240636825562
            ],
            "min": [
                -0.9999772310256958,
                -1,
                -0.999930739402771
            ],
            "type": "VEC3"
        },
        {
            "bufferView": 6,
            "componentType": 5125,
            "count": 39936,
            "max": [
                26623
            ],
            "min": [
                0
            ],
            "type": "SCALAR"
        }
    ],
    "meshes": [
        {
            "primitives": [
                {
                    "mode": 4,
                    "attributes": {
                        "POSITION": 0,
                        "NORMAL": 1
                    },
                    "extras": {
                        "type": "SubdivGeometry",
                        "parameters": {
                            "width": 225.5946044921875,
                            "height": 393.3809814453125,
                            "depth": 152.81382369995117
                        }
                    },
                    "indices": 2,
                    "material": 0
                }
            ]
        },
        {
            "primitives": [
                {
                    "mode": 4,
                    "attributes": {
                        "POSITION": 3,
                        "NORMAL": 4
                    },
                    "extras": {
                        "type": "SubdivGeometry",
                        "parameters": {
                            "width": 1022.7423095703125,
                            "height": 886.04638671875,
                            "depth": 1075.9568481445312
                        }
                    },
                    "indices": 5,
                    "material": 0
                }
            ]
        },
        {
            "primitives": [
                {
                    "mode": 4,
                    "attributes": {
                        "POSITION": 6,
                        "NORMAL": 7
                    },
                    "extras": {
                        "type": "SubdivGeometry",
                        "parameters": {
                            "width": 1005.0412902832031,
                            "height": 873.237548828125,
                            "depth": 1059.5144348144531
                        }
                    },
                    "indices": 8,
                    "material": 0
                }
            ]
        }
    ],
    "extensions": {
        "KHR_lights_punctual": {
            "lights": [
                {
                    "name": "Directional Light 2",
                    "color": [
                        1,
                        1,
                        1
                    ],
                    "intensity": 1,
                    "type": "directional"
                },
                {
                    "name": "Directional Light",
                    "color": [
                        1,
                        1,
                        1
                    ],
                    "intensity": 2,
                    "type": "directional"
                }
            ]
        }
    },
    "cameras": [
        {
            "type": "orthographic",
            "orthographic": {
                "xmag": 8.195,
                "ymag": 3.77,
                "zfar": 100000,
                "znear": 0
            }
        }
    ],
    "extensionsUsed": [
        "KHR_lights_punctual",
        "EXT_meshopt_compression"
    ],
    "images": [],
    "extensionsRequired": [
        "EXT_meshopt_compression"
    ]
}