{
  "asset": {
    "version": "2.0",
    "generator": "THREE.GLTFExporter"
  },
  "scenes": [
    {
      "nodes": [
        0
      ]
    }
  ],
  "scene": 0,
  "nodes": [
    {
      "children": [
        9
      ],
      "matrix": [
        0.01,
        0,
        0,
        0,
        0,
        0.01,
        0,
        0,
        0,
        0,
        0.01,
        0,
        0,
        0,
        0,
        1
      ]
    },
    {
      "matrix": [
        -1.2853725925027302e-16,
        -0.08138166691739203,
        -0.614203125366125,
        0,
        0.16822770661976563,
        0.5911287460393178,
        -0.07832432094315847,
        0,
        0.5962951397128966,
        -0.16677015564992287,
        0.022096978504909593,
        0,
        8.015311678321924,
        137.5582990558281,
        -22.03855518112513,
        1
      ],
      "name": "Cube 2",
      "mesh": 0
    },
    {
      "matrix": [
        0.6195711863214501,
        0,
        0,
        0,
        0,
        0.6195711863214501,
        0,
        0,
        0,
        0,
        0.61957118632145,
        0,
        -0.989403945305547,
        -118.27148933579895,
        -11.616042966622807,
        0.9999999999999999
      ],
      "name": "Cube",
      "mesh": 1
    },
    {
      "matrix": [
        0.6195711863214501,
        0,
        0,
        0,
        0,
        0.6195711863214501,
        0,
        0,
        0,
        0,
        0.6195711863214501,
        0,
        -0.33195500282753104,
        -116.8595346210819,
        -11.429384793762118,
        0.9999999999999999
      ],
      "name": "Cube",
      "mesh": 2
    },
    {
      "matrix": [
        0.6739653872767444,
        0,
        0,
        0,
        0,
        0.6701515661455046,
        0,
        0,
        0,
        0,
        0.6686300799428037,
        0,
        24.42462321295946,
        209.18615909026192,
        88.59417555640809,
        1
      ],
      "name": "Nektarin",
      "children": [
        1,
        2,
        3
      ]
    },
    {
      "matrix": [
        0.8854291544643388,
        0.28674329371368557,
        -0.36577793254212737,
        0,
        0.30809350952838405,
        -0.9513560791767105,
        0,
        0,
        -0.3479850597526416,
        -0.11269380694494054,
        -0.930702156473921,
        0,
        0,
        0,
        0,
        1
      ],
      "name": "Directional Light 2",
      "extensions": {
        "KHR_lights_punctual": {
          "light": 0
        }
      }
    },
    {
      "matrix": [
        0.7730686752861154,
        -0.46532339682808926,
        -0.43109043094893573,
        0,
        0.5157030875005671,
        0.8567673695597787,
        0,
        0,
        0.3693442145665111,
        -0.22231466623231622,
        0.902308727844445,
        0,
        0,
        0,
        0,
        1
      ],
      "name": "Directional Light",
      "extensions": {
        "KHR_lights_punctual": {
          "light": 1
        }
      }
    },
    {
      "matrix": [
        0.07421774118326097,
        1.4817170677916547e-8,
        -0.9972420603312188,
        0,
        0.10573221613916597,
        0.9943635042182059,
        0.007868923000697192,
        0,
        0.9916211097813293,
        -0.10602462675666437,
        0.07379941163149495,
        0,
        990.0457329942898,
        82.16153233359732,
        92.3935871879025,
        1
      ],
      "camera": 0
    },
    {
      "matrix": [
        1,
        0,
        0,
        0,
        0,
        1,
        0,
        0,
        0,
        0,
        1,
        0,
        0,
        1,
        0,
        1
      ],
      "name": "Default Ambient Light"
    },
    {
      "name": "Scene 1",
      "children": [
        4,
        5,
        6,
        7,
        8
      ]
    }
  ],
  "bufferViews": [
    {
      "buffer": 0,
      "byteOffset": 0,
      "byteLength": 172032,
      "target": 34962,
      "byteStride": 12
    },
    {
      "buffer": 0,
      "byteOffset": 172032,
      "byteLength": 172032,
      "target": 34962,
      "byteStride": 12
    },
    {
      "buffer": 0,
      "byteOffset": 344064,
      "byteLength": 86016,
      "target": 34963
    },
    {
      "buffer": 0,
      "byteOffset": 430080,
      "byteLength": 319488,
      "target": 34962,
      "byteStride": 12
    },
    {
      "buffer": 0,
      "byteOffset": 749568,
      "byteLength": 319488,
      "target": 34962,
      "byteStride": 12
    },
    {
      "buffer": 0,
      "byteOffset": 1069056,
      "byteLength": 159744,
      "target": 34963
    },
    {
      "buffer": 0,
      "byteOffset": 1228800,
      "byteLength": 319488,
      "target": 34962,
      "byteStride": 12
    },
    {
      "buffer": 0,
      "byteOffset": 1548288,
      "byteLength": 319488,
      "target": 34962,
      "byteStride": 12
    },
    {
      "buffer": 0,
      "byteOffset": 1867776,
      "byteLength": 159744,
      "target": 34963
    }
  ],
  "buffers": [
    {
      "byteLength": 2027520,
      "uri": "data:application/octet-stream;base64,"
    }
  ],
  "accessors": [
    {
      "bufferView": 0,
      "componentType": 5126,
      "count": 14336,
      "max": [
        108.54937744140625,
        206.12423706054688,
        13.692171096801758
      ],
      "min": [
        -60.67144775390625,
        -125.17823028564453,
        -112.78289794921875
      ],
      "type": "VEC3"
    },
    {
      "bufferView": 1,
      "componentType": 5126,
      "count": 14336,
      "max": [
        0.9999911189079285,
        0.9993177056312561,
        0.9999716281890869
      ],
      "min": [
        -0.9998770952224731,
        -0.9996411204338074,
        -0.9999801516532898
      ],
      "type": "VEC3"
    },
    {
      "bufferView": 2,
      "componentType": 5125,
      "count": 21504,
      "max": [
        14335
      ],
      "min": [
        0
      ],
      "type": "SCALAR"
    },
    {
      "bufferView": 3,
      "componentType": 5126,
      "count": 26624,
      "max": [
        462.6510925292969,
        536.134521484375,
        483.87432861328125
      ],
      "min": [
        -461.962158203125,
        -287.09661865234375,
        -469.1328125
      ],
      "type": "VEC3"
    },
    {
      "bufferView": 4,
      "componentType": 5126,
      "count": 26624,
      "max": [
        0.9999977946281433,
        1,
        0.9999240040779114
      ],
      "min": [
        -0.999977171421051,
        -1,
        -0.9999309778213501
      ],
      "type": "VEC3"
    },
    {
      "bufferView": 5,
      "componentType": 5125,
      "count": 39936,
      "max": [
        26623
      ],
      "min": [
        0
      ],
      "type": "SCALAR"
    },
    {
      "bufferView": 6,
      "componentType": 5126,
      "count": 26624,
      "max": [
        454.643798828125,
        528.3841552734375,
        476.47991943359375
      ],
      "min": [
        -453.9667663574219,
        -282.9462890625,
        -461.96368408203125
      ],
      "type": "VEC3"
    },
    {
      "bufferView": 7,
      "componentType": 5126,
      "count": 26624,
      "max": [
        0.9999978542327881,
        1,
        0.9999240636825562
      ],
      "min": [
        -0.9999772310256958,
        -1,
        -0.999930739402771
      ],
      "type": "VEC3"
    },
    {
      "bufferView": 8,
      "componentType": 5125,
      "count": 39936,
      "max": [
        26623
      ],
      "min": [
        0
      ],
      "type": "SCALAR"
    }
  ],
  "meshes": [
    {
      "primitives": [
        {
          "mode": 4,
          "attributes": {
            "POSITION": 0,
            "NORMAL": 1
          },
          "extras": {
            "type": "SubdivGeometry",
            "parameters": {
              "width": 225.5946044921875,
              "height": 393.3809814453125,
              "depth": 152.81382369995117
            }
          },
          "indices": 2
        }
      ]
    },
    {
      "primitives": [
        {
          "mode": 4,
          "attributes": {
            "POSITION": 3,
            "NORMAL": 4
          },
          "extras": {
            "type": "SubdivGeometry",
            "parameters": {
              "width": 1022.7423095703125,
              "height": 886.04638671875,
              "depth": 1075.9568481445312
            }
          },
          "indices": 5
        }
      ]
    },
    {
      "primitives": [
        {
          "mode": 4,
          "attributes": {
            "POSITION": 6,
            "NORMAL": 7
          },
          "extras": {
            "type": "SubdivGeometry",
            "parameters": {
              "width": 1005.0412902832031,
              "height": 873.237548828125,
              "depth": 1059.5144348144531
            }
          },
          "indices": 8
        }
      ]
    }
  ],
  "extensions": {
    "KHR_lights_punctual": {
      "lights": [
        {
          "name": "Directional Light 2",
          "color": [
            1,
            1,
            1
          ],
          "intensity": 1,
          "type": "directional"
        },
        {
          "name": "Directional Light",
          "color": [
            1,
            1,
            1
          ],
          "intensity": 2,
          "type": "directional"
        }
      ]
    }
  },
  "cameras": [
    {
      "type": "orthographic",
      "orthographic": {
        "xmag": 8.195,
        "ymag": 3.77,
        "zfar": 100000,
        "znear": 0
      }
    }
  ],
  "extensionsUsed": [
    "KHR_lights_punctual"
  ]
}